<?xml version="1.0" encoding="UTF-8" standalone="no"?>
<svg
   xmlns:dc="http://purl.org/dc/elements/1.1/"
   xmlns:cc="http://creativecommons.org/ns#"
   xmlns:rdf="http://www.w3.org/1999/02/22-rdf-syntax-ns#"
   xmlns:svg="http://www.w3.org/2000/svg"
   xmlns="http://www.w3.org/2000/svg"
   viewBox="0 0 696 236"
   height="46.046803"
   width="151.74803"
   xml:space="preserve"
   id="svg2"
   version="1.1"><metadata
     id="metadata8"><rdf:RDF><cc:Work
         rdf:about=""><dc:format>image/svg+xml</dc:format><dc:type
           rdf:resource="http://purl.org/dc/dcmitype/StillImage" /></cc:Work></rdf:RDF></metadata><defs
     id="defs6"><clipPath
       id="clipPath18"
       clipPathUnits="userSpaceOnUse"><path
         id="path16"
         d="M 0,177 H 522 V 0 H 0 Z" /></clipPath></defs><g
     transform="matrix(1.3333333,0,0,-1.3333333,0,236)"
     id="g10"><g
       id="g12"><g
         clip-path="url(#clipPath18)"
         id="g14"><g
           transform="translate(69.4619,120.7109)"
           id="g20"><path
             id="path22"
             style="fill:#231f20;fill-opacity:1;fill-rule:nonzero;stroke:none"
             d="M 0,0 C 1.105,3.27 3.536,7.088 5.858,9.357 H -13.928 V 26.056 L -24.533,22.529 V 9.357 H -36.002 L -39.254,0 h 14.721 v -45.96 c 0,-2.996 0.292,-5.409 0.876,-7.236 0.582,-1.83 1.475,-3.24 2.678,-4.241 1.208,-0.998 2.792,-1.683 4.742,-2.058 1.954,-0.375 4.302,-0.56 7.047,-0.56 H 2.158 c -1.559,1.878 -3.273,6.093 -3.241,9.353 h -4.865 c -1.661,0 -3.015,0.062 -4.052,0.19 -1.042,0.125 -1.851,0.391 -2.435,0.807 -0.58,0.417 -0.977,1.001 -1.181,1.747 -0.208,0.748 -0.312,1.749 -0.312,2.994 V 0 Z" /></g><g
           transform="translate(188.4258,60.6558)"
           id="g24"><path
             id="path26"
             style="fill:#231f20;fill-opacity:1;fill-rule:nonzero;stroke:none"
             d="m 0,0 h 12.917 c 0,0 -1.254,4.632 -1.434,7.834 v 1.33 0.003 56.818 L 0.882,62.129 V 28.062 C 0.882,25.154 0.484,22.471 -0.304,20.02 -1.095,17.564 -2.281,15.422 -3.857,13.595 -5.438,11.761 -7.413,10.35 -9.786,9.353 -12.153,8.356 -14.96,7.86 -18.205,7.86 c -4.074,0 -7.276,1.16 -9.602,3.491 -2.33,2.322 -3.494,5.484 -3.494,9.475 V 65.985 L -41.905,62.129 V 22.078 c 0,-3.495 0.357,-6.678 1.059,-9.545 0.708,-2.865 1.939,-5.345 3.683,-7.422 1.746,-2.08 4.031,-3.68 6.862,-4.8 2.824,-1.12 6.358,-1.687 10.598,-1.687 12.063,0 18.552,3.488 20.797,7.48 H 1.518 C 1.352,4.244 0.599,1.319 0,0" /></g><g
           transform="translate(301.3643,60.6558)"
           id="g28"><path
             id="path30"
             style="fill:#231f20;fill-opacity:1;fill-rule:nonzero;stroke:none"
             d="m 0,0 h 12.88 c 0,0 -1.19,4.391 -1.417,7.584 V 65.985 L 0.86,62.129 V 28.062 C 0.86,25.154 0.464,22.471 -0.327,20.02 -1.115,17.564 -2.299,15.422 -3.882,13.595 -5.461,11.761 -7.434,10.35 -9.805,9.353 -12.176,8.356 -14.981,7.86 -18.226,7.86 c -4.072,0 -7.274,1.16 -9.602,3.491 -2.333,2.322 -3.495,5.484 -3.495,9.475 V 65.985 L -41.922,62.129 V 22.078 c 0,-3.495 0.352,-6.678 1.062,-9.545 0.703,-2.865 1.928,-5.345 3.676,-7.422 1.748,-2.08 4.036,-3.68 6.86,-4.8 2.825,-1.12 6.363,-1.687 10.603,-1.687 4.74,0 8.855,0.939 12.347,2.807 3.492,1.873 6.362,4.807 8.609,8.798 H 1.481 V 7.866 C 1.285,4.654 0,0 0,0" /></g><g
           transform="translate(234.2334,123.1465)"
           id="g32"><path
             id="path34"
             style="fill:#231f20;fill-opacity:1;fill-rule:nonzero;stroke:none"
             d="m 0,0 c -3.741,-2.497 -6.906,-6.363 -9.481,-11.6 h -0.25 V 3.559 l -9.978,-4.193 v -53.988 c -0.211,-3.209 -1.575,-7.869 -1.575,-7.869 l 13.697,-0.004 c 0,0 -1.327,4.613 -1.521,7.816 v 20.878 c 0,4.155 0.42,7.835 1.25,11.038 0.829,3.199 2.159,5.924 3.992,8.168 1.829,2.247 4.238,3.952 7.234,5.116 2.994,1.164 5.205,1.744 8.65,1.744 V 3.495 C 7.075,3.661 3.738,2.494 0,0" /></g><g
           transform="translate(376.8042,87.2925)"
           id="g36"><path
             id="path38"
             style="fill:#231f20;fill-opacity:1;fill-rule:nonzero;stroke:none"
             d="m 0,0 c -1.193,2.053 -2.753,3.757 -4.686,5.116 -1.928,1.354 -4.148,2.443 -6.652,3.267 -2.507,0.818 -5.076,1.518 -7.704,2.095 -2.467,0.571 -4.93,1.127 -7.398,1.66 -2.467,0.535 -4.681,1.192 -6.654,1.972 -1.973,0.785 -3.596,1.768 -4.869,2.961 -1.274,1.19 -1.909,2.689 -1.909,4.499 0,1.641 0.407,2.979 1.232,4.007 0.819,1.025 1.89,1.847 3.204,2.463 1.315,0.617 2.776,1.047 4.374,1.296 1.606,0.245 3.186,0.37 4.747,0.37 1.725,0 3.432,-0.186 5.113,-0.554 1.685,-0.371 3.224,-0.971 4.624,-1.788 1.398,-0.826 2.545,-1.912 3.452,-3.268 0.868,-1.3 1.387,-2.935 1.572,-4.874 l 9.995,3.634 c -0.425,2.185 -1.057,4.138 -1.955,5.801 -1.395,2.586 -3.264,4.641 -5.606,6.161 -2.344,1.521 -5.032,2.59 -8.074,3.203 -3.041,0.622 -6.368,0.929 -9.984,0.929 -2.795,0 -5.607,-0.351 -8.444,-1.049 -2.834,-0.698 -5.381,-1.768 -7.642,-3.203 -2.259,-1.44 -4.107,-3.312 -5.545,-5.611 -1.438,-2.299 -2.155,-5.052 -2.155,-8.257 0,-4.11 1.024,-7.316 3.079,-9.614 2.055,-2.302 4.621,-4.089 7.705,-5.362 3.081,-1.276 6.43,-2.26 10.044,-2.958 3.615,-0.699 6.965,-1.479 10.045,-2.342 3.084,-0.863 5.648,-1.994 7.706,-3.39 2.051,-1.397 3.078,-3.451 3.078,-6.161 0,-1.972 -0.491,-3.595 -1.478,-4.871 -0.986,-1.272 -2.238,-2.239 -3.761,-2.896 -1.519,-0.658 -3.18,-1.108 -4.986,-1.355 -1.811,-0.248 -3.539,-0.368 -5.179,-0.368 -2.139,0 -4.211,0.202 -6.224,0.615 -2.017,0.407 -3.824,1.087 -5.425,2.031 -1.603,0.948 -2.899,2.221 -3.882,3.823 -0.985,1.603 -1.524,3.554 -1.603,5.855 h -0.269 l -9.823,-3.573 c 0.396,-2.426 1.074,-4.598 2.081,-6.473 1.48,-2.753 3.449,-4.97 5.916,-6.655 2.464,-1.683 5.3,-2.897 8.504,-3.635 3.205,-0.74 6.573,-1.112 10.106,-1.112 3.201,0 6.43,0.307 9.676,0.929 3.245,0.613 6.163,1.702 8.752,3.263 2.587,1.56 4.681,3.614 6.288,6.16 1.599,2.549 2.4,5.752 2.4,9.614 C 1.786,-4.601 1.19,-2.053 0,0" /></g><g
           transform="translate(110.9097,69.1851)"
           id="g40"><path
             id="path42"
             style="fill:#231f20;fill-opacity:1;fill-rule:nonzero;stroke:none"
             d="m 0,0 c -2.519,-0.967 -5.544,-1.449 -9.064,-1.449 -1.601,0 -3.172,0.17 -4.725,0.504 -1.554,0.33 -2.897,0.878 -4.029,1.633 -1.133,0.759 -2.06,1.745 -2.773,2.964 -0.712,1.214 -1.071,2.705 -1.071,4.468 0,2.686 0.61,4.808 1.826,6.361 1.22,1.554 2.789,2.75 4.723,3.59 1.929,0.837 4.117,1.449 6.547,1.824 2.436,0.381 4.849,0.714 7.243,1.006 2.396,0.293 4.679,0.671 6.863,1.135 2.183,0.46 3.942,1.196 5.289,2.202 V 13.285 c 0,-1.514 -0.378,-3.129 -1.136,-4.848 C 8.937,6.714 7.761,5.12 6.17,3.652 4.575,2.18 2.518,0.964 0,0 m 9.837,-8.533 h 12.916 c 0,0 -1.254,4.632 -1.435,7.835 v 1.329 0.004 4.59 c 0.009,0.264 0.012,0.531 0.012,0.805 v 33.378 c 0,3.77 -0.711,6.821 -2.135,9.164 -1.424,2.342 -3.303,4.164 -5.645,5.46 -2.344,1.296 -4.958,2.151 -7.842,2.574 -2.889,0.415 -5.797,0.626 -8.723,0.626 -3.599,0 -7.03,-0.375 -10.294,-1.129 -3.262,-0.756 -6.146,-1.987 -8.657,-3.702 -2.508,-1.718 -4.517,-3.953 -6.024,-6.713 -1.507,-2.763 -2.346,-6.148 -2.511,-10.166 h 10.668 c 0.25,4.764 1.883,8.009 4.894,9.727 3.011,1.712 6.776,2.571 11.294,2.571 1.673,0 3.37,-0.126 5.084,-0.375 1.715,-0.253 3.26,-0.75 4.644,-1.507 1.384,-0.753 2.509,-1.847 3.389,-3.263 0.874,-1.426 1.317,-3.308 1.317,-5.648 0,-2.007 -0.587,-3.537 -1.757,-4.579 C 7.861,31.397 6.266,30.601 4.265,30.063 2.252,29.516 -0.065,29.099 -2.7,28.806 c -2.637,-0.295 -5.424,-0.737 -8.344,-1.313 -2.767,-0.507 -5.461,-1.13 -8.101,-1.886 -2.632,-0.751 -4.977,-1.865 -7.026,-3.324 -2.05,-1.469 -3.701,-3.372 -4.96,-5.71 -1.252,-2.343 -1.88,-5.356 -1.88,-9.039 0,-3.261 0.567,-6.04 1.695,-8.345 1.13,-2.303 2.679,-4.182 4.646,-5.648 1.963,-1.462 4.242,-2.51 6.837,-3.136 2.594,-0.627 5.352,-0.945 8.281,-0.945 4.523,0 8.722,0.778 12.612,2.324 3.893,1.549 7.298,4.081 10.231,7.594 0,-0.457 0.014,-0.899 0.042,-1.324 -0.006,-0.412 -0.033,-0.89 -0.098,-1.398 -0.275,-1.8 -0.889,-4.068 -1.398,-5.189" /></g><g
           transform="translate(85.1724,45.7563)"
           id="g44"><path
             id="path46"
             style="fill:#939598;fill-opacity:1;fill-rule:nonzero;stroke:none"
             d="m 0,0 c -0.897,0.625 -1.962,0.938 -3.196,0.938 -1.053,0 -1.953,-0.198 -2.702,-0.592 -0.749,-0.395 -1.366,-0.926 -1.852,-1.592 -0.484,-0.667 -0.842,-1.428 -1.073,-2.283 -0.23,-0.856 -0.345,-1.743 -0.345,-2.665 0,-1.004 0.115,-1.954 0.345,-2.851 0.231,-0.896 0.589,-1.678 1.073,-2.344 0.486,-0.667 1.107,-1.196 1.864,-1.591 0.757,-0.395 1.661,-0.593 2.715,-0.593 0.773,0 1.46,0.127 2.061,0.382 0.6,0.255 1.118,0.609 1.554,1.062 0.436,0.452 0.778,0.991 1.024,1.616 0.247,0.625 0.395,1.299 0.445,2.023 h 2.344 c -0.231,-2.221 -0.995,-3.948 -2.295,-5.181 -1.3,-1.235 -3.077,-1.852 -5.33,-1.852 -1.367,0 -2.559,0.235 -3.579,0.704 -1.02,0.468 -1.867,1.114 -2.542,1.937 -0.675,0.822 -1.18,1.793 -1.518,2.912 -0.337,1.119 -0.506,2.32 -0.506,3.603 0,1.284 0.181,2.489 0.543,3.615 0.362,1.127 0.892,2.11 1.592,2.95 0.699,0.839 1.571,1.501 2.616,1.986 1.045,0.485 2.241,0.728 3.591,0.728 0.921,0 1.793,-0.123 2.616,-0.37 C 0.267,2.295 1,1.933 1.641,1.457 2.283,0.979 2.817,0.382 3.246,-0.333 3.673,-1.049 3.953,-1.875 4.084,-2.813 H 1.74 C 1.476,-1.563 0.897,-0.625 0,0" /></g><g
           transform="translate(130.9634,37.9092)"
           id="g48"><path
             id="path50"
             style="fill:#939598;fill-opacity:1;fill-rule:nonzero;stroke:none"
             d="M 0,0 -2.937,8.218 H -2.986 L -5.972,0 Z M -1.629,10.34 5.257,-7.281 H 2.666 l -1.925,5.306 h -7.454 l -1.974,-5.306 h -2.394 L -4.22,10.34 Z" /></g><g
           transform="translate(174.4966,39.8091)"
           id="g52"><path
             id="path54"
             style="fill:#939598;fill-opacity:1;fill-rule:nonzero;stroke:none"
             d="M 0,0 C 1.333,-0.017 2.308,0.254 2.925,0.814 3.542,1.374 3.851,2.18 3.851,3.233 3.851,4.286 3.542,5.087 2.925,5.639 2.308,6.19 1.333,6.465 0,6.465 H -4.59 V 0 Z M 0.79,8.44 C 2.567,8.44 3.912,7.983 4.825,7.07 5.738,6.157 6.195,4.878 6.195,3.233 6.195,1.588 5.738,0.304 4.825,-0.617 3.912,-1.539 2.567,-1.991 0.79,-1.975 H -4.59 V -9.181 H -6.935 V 8.44 Z" /></g><path
           id="path56"
           style="fill:#939598;fill-opacity:1;fill-rule:nonzero;stroke:none"
           d="m 215.609,30.628 h -2.343 v 17.621 h 2.343 z" /><g
           transform="translate(247.2959,46.2744)"
           id="g58"><path
             id="path60"
             style="fill:#939598;fill-opacity:1;fill-rule:nonzero;stroke:none"
             d="M 0,0 V 1.975 H 14.092 V 0 H 8.219 V -15.646 H 5.875 V 0 Z" /></g><g
           transform="translate(299.6895,37.9092)"
           id="g62"><path
             id="path64"
             style="fill:#939598;fill-opacity:1;fill-rule:nonzero;stroke:none"
             d="m 0,0 -2.937,8.218 h -0.05 L -5.972,0 Z M -1.628,10.34 5.257,-7.281 H 2.665 l -1.924,5.306 h -7.454 l -1.974,-5.306 h -2.394 l 6.862,17.621 z" /></g><g
           transform="translate(338.6323,48.249)"
           id="g66"><path
             id="path68"
             style="fill:#939598;fill-opacity:1;fill-rule:nonzero;stroke:none"
             d="m 0,0 v -15.646 h 9.329 v -1.975 H -2.345 V 0 Z" /></g><g
           transform="translate(455.9492,124.3784)"
           id="g70"><path
             id="path72"
             style="fill:#231f20;fill-opacity:1;fill-rule:nonzero;stroke:none"
             d="m 0,0 h -3.773 v -1.515 h 3.464 V -2.753 H -3.773 V -4.587 H 0.175 V -5.87 H -5.229 V 1.263 H 0 Z" /></g><g
           transform="translate(463.7549,123.7642)"
           id="g74"><path
             id="path76"
             style="fill:#231f20;fill-opacity:1;fill-rule:nonzero;stroke:none"
             d="M 0,0 C 0.226,-0.091 0.431,-0.249 0.614,-0.475 0.763,-0.659 0.863,-0.884 0.916,-1.152 0.947,-1.33 0.963,-1.589 0.963,-1.931 l -0.01,-3.324 h -1.412 v 3.358 c 0,0.2 -0.033,0.364 -0.098,0.493 -0.122,0.246 -0.348,0.368 -0.676,0.368 -0.381,0 -0.644,-0.158 -0.789,-0.474 -0.075,-0.168 -0.111,-0.369 -0.111,-0.605 v -3.14 h -1.389 v 3.14 c 0,0.313 -0.033,0.54 -0.097,0.682 -0.116,0.255 -0.344,0.383 -0.683,0.383 -0.393,0 -0.658,-0.128 -0.794,-0.383 -0.073,-0.145 -0.11,-0.361 -0.11,-0.648 v -3.174 h -1.398 v 5.264 h 1.34 V -0.76 c 0.171,0.274 0.331,0.469 0.484,0.585 0.267,0.207 0.614,0.31 1.04,0.31 0.403,0 0.728,-0.089 0.977,-0.266 0.2,-0.165 0.352,-0.376 0.455,-0.634 0.181,0.31 0.405,0.537 0.672,0.682 0.284,0.145 0.601,0.218 0.949,0.218 C -0.455,0.135 -0.226,0.09 0,0" /></g><g
           transform="translate(469.3623,122.2251)"
           id="g78"><path
             id="path80"
             style="fill:#231f20;fill-opacity:1;fill-rule:nonzero;stroke:none"
             d="m 0,0 c -0.187,0.313 -0.49,0.469 -0.911,0.469 -0.505,0 -0.852,-0.237 -1.041,-0.711 C -2.051,-0.494 -2.1,-0.813 -2.1,-1.2 c 0,-0.613 0.164,-1.044 0.495,-1.292 0.195,-0.145 0.426,-0.217 0.694,-0.217 0.388,0 0.683,0.147 0.888,0.444 0.203,0.297 0.304,0.692 0.304,1.186 C 0.281,-0.672 0.187,-0.313 0,0 m 1.06,0.992 c 0.429,-0.455 0.644,-1.123 0.644,-2.004 0,-0.928 -0.21,-1.636 -0.631,-2.124 -0.42,-0.487 -0.962,-0.73 -1.624,-0.73 -0.422,0 -0.772,0.104 -1.052,0.314 -0.152,0.116 -0.301,0.286 -0.448,0.509 v -2.749 h -1.364 v 7.35 h 1.321 V 0.779 c 0.149,0.229 0.308,0.409 0.477,0.542 0.308,0.235 0.675,0.353 1.1,0.353 0.621,0 1.145,-0.227 1.577,-0.682" /></g><g
           transform="translate(474.9687,123.9067)"
           id="g82"><path
             id="path84"
             style="fill:#231f20;fill-opacity:1;fill-rule:nonzero;stroke:none"
             d="M 0,0 C 0.019,-0.001 0.058,-0.004 0.119,-0.008 V -1.42 c -0.087,0.009 -0.164,0.016 -0.232,0.019 -0.068,0.003 -0.123,0.005 -0.164,0.005 -0.556,0 -0.928,-0.181 -1.119,-0.542 -0.106,-0.204 -0.16,-0.517 -0.16,-0.938 v -2.522 h -1.387 v 5.274 h 1.315 v -0.919 c 0.213,0.352 0.399,0.592 0.557,0.721 0.258,0.216 0.592,0.324 1.006,0.324 C -0.039,0.002 -0.018,0.001 0,0" /></g><g
           transform="translate(477.2695,122.4854)"
           id="g86"><path
             id="path88"
             style="fill:#231f20;fill-opacity:1;fill-rule:nonzero;stroke:none"
             d="M 0,0 C -0.195,-0.201 -0.318,-0.473 -0.367,-0.817 H 2.009 C 1.983,-0.451 1.86,-0.173 1.642,0.017 1.421,0.206 1.148,0.301 0.824,0.301 0.47,0.301 0.194,0.201 0,0 M 2.063,1.191 C 2.431,1.026 2.735,0.766 2.975,0.411 3.19,0.097 3.331,-0.266 3.395,-0.68 3.432,-0.922 3.446,-1.271 3.44,-1.727 h -3.841 c 0.021,-0.529 0.205,-0.899 0.551,-1.112 0.21,-0.133 0.465,-0.199 0.76,-0.199 0.315,0 0.57,0.08 0.767,0.242 0.106,0.087 0.201,0.208 0.283,0.363 H 3.367 C 3.332,-2.746 3.16,-3.063 2.857,-3.386 2.385,-3.899 1.723,-4.156 0.872,-4.156 c -0.701,0 -1.321,0.217 -1.857,0.65 -0.536,0.432 -0.806,1.136 -0.806,2.111 0,0.914 0.243,1.614 0.728,2.102 0.485,0.487 1.113,0.731 1.886,0.731 0.459,0 0.872,-0.082 1.24,-0.247" /></g><g
           transform="translate(482.4766,120.1929)"
           id="g90"><path
             id="path92"
             style="fill:#231f20;fill-opacity:1;fill-rule:nonzero;stroke:none"
             d="m 0,0 c 0.028,-0.245 0.092,-0.419 0.189,-0.523 0.171,-0.184 0.49,-0.276 0.954,-0.276 0.271,0 0.488,0.041 0.649,0.122 0.159,0.08 0.24,0.201 0.24,0.363 0,0.154 -0.065,0.272 -0.194,0.353 -0.129,0.08 -0.609,0.219 -1.442,0.416 -0.6,0.148 -1.022,0.334 -1.267,0.556 -0.245,0.219 -0.368,0.535 -0.368,0.948 0,0.487 0.191,0.906 0.575,1.256 0.383,0.35 0.922,0.525 1.616,0.525 0.66,0 1.197,-0.132 1.613,-0.394 C 2.98,3.083 3.22,2.629 3.28,1.984 H 1.901 C 1.883,2.161 1.832,2.301 1.752,2.405 1.599,2.592 1.34,2.686 0.975,2.686 0.674,2.686 0.46,2.639 0.332,2.545 0.204,2.452 0.141,2.342 0.141,2.216 0.141,2.058 0.208,1.943 0.344,1.873 0.479,1.798 0.96,1.67 1.783,1.49 2.333,1.361 2.744,1.166 3.02,0.904 3.29,0.64 3.426,0.31 3.426,-0.087 c 0,-0.523 -0.195,-0.95 -0.584,-1.28 -0.391,-0.33 -0.991,-0.496 -1.806,-0.496 -0.832,0 -1.444,0.175 -1.841,0.525 -0.396,0.35 -0.593,0.796 -0.593,1.338 z" /></g><g
           transform="translate(489.8506,121.0732)"
           id="g94"><path
             id="path96"
             style="fill:#231f20;fill-opacity:1;fill-rule:nonzero;stroke:none"
             d="m 0,0 c -0.089,-0.055 -0.178,-0.099 -0.268,-0.133 -0.09,-0.034 -0.212,-0.065 -0.37,-0.094 L -0.952,-0.285 C -1.246,-0.337 -1.457,-0.4 -1.586,-0.474 -1.803,-0.6 -1.912,-0.795 -1.912,-1.06 c 0,-0.235 0.067,-0.405 0.199,-0.51 0.133,-0.105 0.295,-0.158 0.484,-0.158 0.301,0 0.579,0.088 0.833,0.262 0.254,0.174 0.386,0.492 0.396,0.953 z m -0.844,0.644 c 0.257,0.032 0.441,0.073 0.551,0.121 0.199,0.084 0.298,0.214 0.298,0.391 0,0.217 -0.076,0.366 -0.229,0.448 -0.151,0.083 -0.375,0.124 -0.669,0.124 -0.331,0 -0.564,-0.081 -0.701,-0.242 C -1.692,1.367 -1.758,1.205 -1.791,1.002 h -1.331 c 0.029,0.461 0.16,0.84 0.39,1.137 0.366,0.464 0.995,0.696 1.885,0.696 0.58,0 1.096,-0.114 1.545,-0.343 C 1.149,2.263 1.374,1.831 1.374,1.195 v -2.419 c 0,-0.168 0.003,-0.371 0.01,-0.61 0.01,-0.181 0.037,-0.303 0.082,-0.367 0.046,-0.065 0.113,-0.118 0.203,-0.16 V -2.564 H 0.17 c -0.042,0.106 -0.071,0.206 -0.088,0.3 -0.016,0.093 -0.029,0.2 -0.039,0.319 -0.191,-0.206 -0.412,-0.382 -0.661,-0.527 -0.298,-0.171 -0.637,-0.257 -1.013,-0.257 -0.48,0 -0.877,0.136 -1.19,0.409 -0.313,0.273 -0.47,0.659 -0.47,1.159 0,0.648 0.252,1.118 0.756,1.408 0.277,0.158 0.682,0.271 1.22,0.339 z" /></g><g
           transform="translate(472.624,85.2168)"
           id="g98"><path
             id="path100"
             style="fill:#231f20;fill-opacity:1;fill-rule:nonzero;stroke:none"
             d="M 0,0 C 1.88,0 3.22,0.54 4.022,1.618 4.527,2.302 4.776,3.125 4.776,4.092 4.776,5.721 4.043,6.83 2.573,7.419 1.793,7.734 0.761,7.894 -0.524,7.894 H -6.61 V 0 Z m -1.026,10.351 c 1.296,0 2.303,0.178 3.024,0.535 1.13,0.559 1.695,1.567 1.695,3.021 0,1.467 -0.601,2.454 -1.805,2.963 -0.678,0.284 -1.687,0.427 -3.023,0.427 H -6.61 v -6.946 z m -8.561,9.48 h 9.695 c 2.644,0 4.523,-0.783 5.641,-2.35 0.655,-0.927 0.983,-1.996 0.983,-3.206 0,-1.416 -0.403,-2.576 -1.207,-3.481 C 5.108,10.316 4.508,9.877 3.724,9.481 4.873,9.044 5.735,8.55 6.304,8 7.312,7.023 7.815,5.675 7.815,3.953 7.815,2.51 7.359,1.201 6.448,0.031 5.087,-1.72 2.921,-2.595 -0.05,-2.595 h -9.537 z" /></g><g
           transform="translate(471.1621,112.0923)"
           id="g102"><path
             id="path104"
             style="fill:#231f20;fill-opacity:1;fill-rule:nonzero;stroke:none"
             d="m 0,0 c -9.872,0 -17.905,-8.032 -17.905,-17.905 0,-9.873 8.033,-17.905 17.905,-17.905 9.874,0 17.904,8.032 17.904,17.905 C 17.904,-8.032 9.874,0 0,0 m 0,-38.535 c -11.376,0 -20.629,9.254 -20.629,20.63 0,11.376 9.253,20.63 20.629,20.63 11.376,0 20.63,-9.254 20.63,-20.63 0,-11.376 -9.254,-20.63 -20.63,-20.63" /></g><path
           id="path106"
           style="fill:#231f20;fill-opacity:1;fill-rule:nonzero;stroke:none"
           d="m 491.601,59.3 h -40.876 v 2.699 h 40.876 z" /><g
           transform="translate(451.5391,69.9614)"
           id="g108"><path
             id="path110"
             style="fill:#231f20;fill-opacity:1;fill-rule:nonzero;stroke:none"
             d="m 0,0 c 0.466,0.476 1.06,0.714 1.778,0.714 0.964,0 1.668,-0.319 2.114,-0.957 0.246,-0.359 0.378,-0.719 0.395,-1.08 H 3.078 c -0.077,0.277 -0.176,0.487 -0.296,0.628 -0.216,0.251 -0.534,0.377 -0.958,0.377 -0.43,0 -0.77,-0.177 -1.018,-0.532 -0.249,-0.355 -0.374,-0.857 -0.374,-1.505 0,-0.649 0.131,-1.136 0.394,-1.459 0.262,-0.323 0.596,-0.485 1,-0.485 0.414,0 0.731,0.139 0.949,0.417 0.121,0.149 0.22,0.372 0.299,0.671 H 4.275 C 4.172,-3.842 3.908,-4.355 3.48,-4.75 3.056,-5.146 2.51,-5.343 1.845,-5.343 c -0.824,0 -1.472,0.267 -1.943,0.801 -0.47,0.536 -0.706,1.272 -0.706,2.206 0,1.01 0.268,1.789 0.804,2.336" /></g><g
           transform="translate(457.8164,68.0054)"
           id="g112"><path
             id="path114"
             style="fill:#231f20;fill-opacity:1;fill-rule:nonzero;stroke:none"
             d="M 0,0 C -0.158,-0.163 -0.257,-0.384 -0.299,-0.663 H 1.629 C 1.609,-0.365 1.509,-0.14 1.331,0.014 1.152,0.167 0.933,0.245 0.668,0.245 0.381,0.245 0.158,0.163 0,0 M 1.674,0.966 C 1.973,0.833 2.219,0.622 2.414,0.333 2.589,0.079 2.702,-0.216 2.754,-0.551 2.784,-0.748 2.796,-1.032 2.79,-1.4 h -3.115 c 0.016,-0.43 0.166,-0.731 0.447,-0.904 0.171,-0.107 0.376,-0.16 0.617,-0.16 0.254,0 0.462,0.065 0.621,0.195 0.087,0.071 0.164,0.17 0.231,0.295 H 2.732 C 2.702,-2.228 2.564,-2.485 2.317,-2.747 1.935,-3.163 1.398,-3.371 0.708,-3.371 c -0.569,0 -1.072,0.175 -1.508,0.526 -0.434,0.351 -0.652,0.923 -0.652,1.714 0,0.74 0.196,1.309 0.59,1.705 0.392,0.395 0.903,0.593 1.529,0.593 0.373,0 0.709,-0.067 1.007,-0.201" /></g><g
           transform="translate(463.5498,69.1582)"
           id="g116"><path
             id="path118"
             style="fill:#231f20;fill-opacity:1;fill-rule:nonzero;stroke:none"
             d="m 0,0 c 0.015,-0.001 0.047,-0.003 0.096,-0.005 v -1.147 c -0.07,0.008 -0.133,0.013 -0.188,0.016 -0.054,0.003 -0.099,0.004 -0.133,0.004 -0.451,0 -0.753,-0.147 -0.907,-0.44 -0.087,-0.165 -0.13,-0.419 -0.13,-0.761 V -4.379 H -2.389 V -0.1 h 1.069 v -0.746 c 0.172,0.286 0.322,0.481 0.451,0.586 0.21,0.174 0.481,0.262 0.816,0.262 0.022,0 0.038,0 0.053,-0.002" /></g><g
           transform="translate(463.8623,68.2222)"
           id="g120"><path
             id="path122"
             style="fill:#231f20;fill-opacity:1;fill-rule:nonzero;stroke:none"
             d="M 0,0 V 0.797 H 0.597 V 1.99 H 1.704 V 0.797 H 2.398 V 0 H 1.704 v -2.261 c 0,-0.176 0.023,-0.285 0.067,-0.328 0.043,-0.043 0.18,-0.065 0.408,-0.065 0.035,0 0.07,10e-4 0.108,0.002 0.037,0.001 0.075,0.004 0.111,0.006 V -3.482 L 1.869,-3.501 C 1.341,-3.52 0.979,-3.429 0.785,-3.227 0.66,-3.099 0.597,-2.901 0.597,-2.634 V 0 Z" /></g><path
           id="path124"
           style="fill:#231f20;fill-opacity:1;fill-rule:nonzero;stroke:none"
           d="m 466.995,69.059 h 1.134 V 64.78 h -1.134 z m 1.134,0.51 h -1.134 v 1.032 h 1.134 z" /><g
           transform="translate(470.9834,70.6191)"
           id="g126"><path
             id="path128"
             style="fill:#231f20;fill-opacity:1;fill-rule:nonzero;stroke:none"
             d="M 0,0 C 0.058,-0.004 0.137,-0.01 0.235,-0.018 V -0.929 C 0.173,-0.92 0.067,-0.915 -0.08,-0.911 -0.229,-0.907 -0.33,-0.939 -0.387,-1.009 -0.443,-1.079 -0.47,-1.155 -0.47,-1.239 V -1.6 H 0.264 V -2.389 H -0.47 V -5.84 h -1.111 v 3.451 H -2.21 V -1.6 h 0.612 v 0.275 c 0,0.458 0.078,0.773 0.232,0.946 0.163,0.256 0.554,0.384 1.174,0.384 C -0.121,0.005 -0.058,0.004 0,0" /></g><path
           id="path130"
           style="fill:#231f20;fill-opacity:1;fill-rule:nonzero;stroke:none"
           d="m 471.906,69.059 h 1.135 V 64.78 h -1.135 z m 1.135,0.51 h -1.135 v 1.032 h 1.135 z" /><g
           transform="translate(476.6846,67.5229)"
           id="g132"><path
             id="path134"
             style="fill:#231f20;fill-opacity:1;fill-rule:nonzero;stroke:none"
             d="m 0,0 c -0.022,0.16 -0.075,0.304 -0.163,0.432 -0.125,0.173 -0.321,0.259 -0.585,0.259 -0.379,0 -0.637,-0.187 -0.776,-0.561 -0.073,-0.198 -0.11,-0.462 -0.11,-0.791 0,-0.313 0.037,-0.565 0.11,-0.756 0.134,-0.356 0.385,-0.534 0.756,-0.534 0.262,0 0.45,0.071 0.559,0.212 0.109,0.142 0.177,0.325 0.201,0.55 h 1.142 c -0.026,-0.34 -0.15,-0.662 -0.369,-0.966 -0.351,-0.489 -0.871,-0.734 -1.56,-0.734 -0.689,0 -1.196,0.204 -1.521,0.613 -0.326,0.408 -0.488,0.937 -0.488,1.588 0,0.733 0.18,1.305 0.539,1.713 0.359,0.408 0.854,0.613 1.486,0.613 0.536,0 0.975,-0.12 1.318,-0.362 C 0.881,1.036 1.083,0.61 1.146,0 Z" /></g><g
           transform="translate(480.9746,66.8599)"
           id="g136"><path
             id="path138"
             style="fill:#231f20;fill-opacity:1;fill-rule:nonzero;stroke:none"
             d="M 0,0 C -0.071,-0.044 -0.144,-0.08 -0.217,-0.108 -0.29,-0.135 -0.39,-0.161 -0.518,-0.185 l -0.254,-0.046 c -0.239,-0.042 -0.411,-0.093 -0.514,-0.153 -0.176,-0.102 -0.265,-0.261 -0.265,-0.475 0,-0.192 0.054,-0.329 0.162,-0.414 0.107,-0.086 0.239,-0.128 0.393,-0.128 0.244,0 0.47,0.07 0.676,0.212 0.205,0.141 0.312,0.399 0.32,0.772 z m -0.685,0.522 c 0.209,0.026 0.358,0.059 0.449,0.098 0.159,0.068 0.24,0.174 0.24,0.318 0,0.176 -0.062,0.297 -0.185,0.364 -0.124,0.066 -0.304,0.099 -0.543,0.099 -0.268,0 -0.458,-0.065 -0.569,-0.195 -0.08,-0.098 -0.133,-0.228 -0.159,-0.394 h -1.08 c 0.024,0.375 0.129,0.683 0.315,0.923 0.298,0.377 0.807,0.566 1.53,0.566 0.471,0 0.889,-0.093 1.254,-0.279 C 0.933,1.835 1.115,1.485 1.115,0.97 v -1.963 c 0,-0.136 0.003,-0.301 0.008,-0.495 0.008,-0.147 0.03,-0.246 0.067,-0.298 0.036,-0.052 0.091,-0.096 0.164,-0.13 V -2.081 H 0.138 C 0.104,-1.994 0.08,-1.913 0.067,-1.837 0.054,-1.761 0.043,-1.675 0.035,-1.578 -0.12,-1.746 -0.3,-1.888 -0.501,-2.006 c -0.242,-0.139 -0.517,-0.208 -0.822,-0.208 -0.389,0 -0.711,0.11 -0.965,0.332 -0.254,0.221 -0.382,0.534 -0.382,0.94 0,0.525 0.205,0.907 0.613,1.142 0.226,0.129 0.554,0.22 0.989,0.275 z" /></g><g
           transform="translate(485.6113,65.9414)"
           id="g140"><path
             id="path142"
             style="fill:#231f20;fill-opacity:1;fill-rule:nonzero;stroke:none"
             d="m 0,0 c 0.164,0.235 0.247,0.54 0.247,0.915 0,0.523 -0.132,0.897 -0.396,1.123 -0.163,0.135 -0.351,0.204 -0.566,0.204 -0.326,0 -0.566,-0.124 -0.72,-0.371 -0.153,-0.247 -0.23,-0.555 -0.23,-0.921 0,-0.395 0.079,-0.711 0.233,-0.948 0.157,-0.237 0.393,-0.355 0.709,-0.355 0.317,0 0.558,0.117 0.723,0.353 M -0.275,3.048 C -0.073,2.934 0.09,2.777 0.216,2.576 V 4.617 H 1.351 V -1.162 H 0.263 v 0.593 c -0.159,-0.254 -0.342,-0.439 -0.545,-0.554 -0.204,-0.115 -0.459,-0.173 -0.762,-0.173 -0.5,0 -0.921,0.203 -1.263,0.607 -0.341,0.404 -0.512,0.923 -0.512,1.557 0,0.73 0.169,1.304 0.505,1.723 0.336,0.419 0.786,0.628 1.348,0.628 0.259,0 0.489,-0.056 0.691,-0.171" /></g><g
           transform="translate(490.3564,66.8599)"
           id="g144"><path
             id="path146"
             style="fill:#231f20;fill-opacity:1;fill-rule:nonzero;stroke:none"
             d="M 0,0 C -0.071,-0.044 -0.144,-0.08 -0.217,-0.108 -0.289,-0.135 -0.389,-0.161 -0.516,-0.185 L -0.771,-0.231 C -1.01,-0.273 -1.182,-0.324 -1.285,-0.384 -1.462,-0.486 -1.55,-0.645 -1.55,-0.859 c 0,-0.192 0.054,-0.329 0.162,-0.414 0.107,-0.086 0.238,-0.128 0.392,-0.128 0.245,0 0.47,0.07 0.676,0.212 0.206,0.141 0.312,0.399 0.32,0.772 z m -0.684,0.522 c 0.208,0.026 0.358,0.059 0.448,0.098 0.161,0.068 0.241,0.174 0.241,0.318 0,0.176 -0.063,0.297 -0.185,0.364 -0.124,0.066 -0.304,0.099 -0.543,0.099 -0.268,0 -0.459,-0.065 -0.57,-0.195 C -1.372,1.108 -1.425,0.978 -1.451,0.812 h -1.08 c 0.023,0.375 0.128,0.683 0.315,0.923 0.297,0.377 0.807,0.566 1.529,0.566 0.471,0 0.89,-0.093 1.255,-0.279 C 0.934,1.835 1.116,1.485 1.116,0.97 v -1.963 c 0,-0.136 0.002,-0.301 0.008,-0.495 0.008,-0.147 0.03,-0.246 0.066,-0.298 0.037,-0.052 0.091,-0.096 0.165,-0.13 V -2.081 H 0.139 c -0.035,0.087 -0.058,0.168 -0.072,0.244 -0.012,0.076 -0.022,0.162 -0.031,0.259 -0.155,-0.168 -0.335,-0.31 -0.536,-0.428 -0.243,-0.139 -0.517,-0.208 -0.822,-0.208 -0.39,0 -0.712,0.11 -0.966,0.332 -0.253,0.221 -0.381,0.534 -0.381,0.94 0,0.525 0.204,0.907 0.613,1.142 0.224,0.129 0.554,0.22 0.99,0.275 z" /></g><g
           transform="translate(414.5615,126.417)"
           id="g148"><path
             id="path150"
             style="fill:none;stroke:#939598;stroke-width:2;stroke-linecap:butt;stroke-linejoin:miter;stroke-miterlimit:10;stroke-dasharray:none;stroke-opacity:1"
             d="M 0,0 V -67.117" /></g></g></g></g></svg>
